2014034_C4_04_grf
version=1
nRows=21
nColumns=19
inDegrees=no
endheader
time	ground_force_1_vx	ground_force_1_vy	ground_force_1_vz	ground_force_1_px	ground_force_1_py	ground_force_1_pz	ground_force_1_mx	ground_force_1_my	ground_force_1_mz	ground_force_2_vx	ground_force_2_vy	ground_force_2_vz	ground_force_2_px	ground_force_2_py	ground_force_2_pz	ground_force_2_mx	ground_force_2_my	ground_force_2_mz
      0.45000000	      0.55393914	    744.88535523	     33.05744827	      0.40574636	     -0.00200000	     -0.33092481	      0.00000000	     -2.27652746	      0.00000000	      0.00000000	      0.00000000	      0.00000000	      0.00000000	      0.00000000	      0.00000000	      0.00000000	      0.00000000	      0.00000000
      0.45100000	      1.29409286	    746.51397765	     32.94812255	      0.40583531	     -0.00200000	     -0.33077365	      0.00000000	     -2.31770277	      0.00000000	      0.00000000	      0.00000000	      0.00000000	      0.00000000	      0.00000000	      0.00000000	      0.00000000	      0.00000000	      0.00000000
      0.45200000	      2.03274819	    748.16048145	     32.84108564	      0.40592248	     -0.00200000	     -0.33062450	      0.00000000	     -2.35923869	      0.00000000	      0.00000000	      0.00000000	      0.00000000	      0.00000000	      0.00000000	      0.00000000	      0.00000000	      0.00000000	      0.00000000
      0.45300000	      2.76941853	    749.82982129	     32.73693882	      0.40600749	     -0.00200000	     -0.33047783	      0.00000000	     -2.40122784	      0.00000000	      0.00000000	      0.00000000	      0.00000000	      0.00000000	      0.00000000	      0.00000000	      0.00000000	      0.00000000	      0.00000000
      0.45400000	      3.50443320	    751.51771307	     32.63512999	      0.40609085	     -0.00200000	     -0.33033316	      0.00000000	     -2.44358005	     -0.00000000	      0.00000000	      0.00000000	      0.00000000	      0.00000000	      0.00000000	      0.00000000	      0.00000000	      0.00000000	      0.00000000
      0.45500000	      4.23731958	    753.22922319	     32.53628500	      0.40617218	     -0.00200000	     -0.33019097	      0.00000000	     -2.48638358	      0.00000000	      0.00000000	      0.00000000	      0.00000000	      0.00000000	      0.00000000	      0.00000000	      0.00000000	      0.00000000	      0.00000000
      0.45600000	      4.96847229	    754.95988131	     32.43984058	      0.40625195	     -0.00200000	     -0.33005077	      0.00000000	     -2.52954848	      0.00000000	      0.00000000	      0.00000000	      0.00000000	      0.00000000	      0.00000000	      0.00000000	      0.00000000	      0.00000000	      0.00000000
      0.45700000	      5.69744967	    756.71479106	     32.34643042	      0.40632982	     -0.00200000	     -0.32991304	      0.00000000	     -2.57316523	      0.00000000	      0.00000000	      0.00000000	      0.00000000	      0.00000000	      0.00000000	      0.00000000	      0.00000000	      0.00000000	      0.00000000
      0.45800000	      6.42470550	    758.48922133	     32.25548342	      0.40640622	     -0.00200000	     -0.32977729	      0.00000000	     -2.61714334	      0.00000000	      0.00000000	      0.00000000	      0.00000000	      0.00000000	      0.00000000	      0.00000000	      0.00000000	      0.00000000	      0.00000000
      0.45900000	      7.14987307	    760.28849930	     32.16767125	      0.40648080	     -0.00200000	     -0.32964398	      0.00000000	     -2.66157108	     -0.00000000	      0.00000000	      0.00000000	      0.00000000	      0.00000000	      0.00000000	      0.00000000	      0.00000000	      0.00000000	      0.00000000
      0.46000000	      7.87345134	    762.10767031	     32.08242506	      0.40655397	     -0.00200000	     -0.32951262	      0.00000000	     -2.70635270	      0.00000000	      0.00000000	      0.00000000	      0.00000000	      0.00000000	      0.00000000	      0.00000000	      0.00000000	      0.00000000	      0.00000000
      0.46100000	      8.59518629	    763.95213604	     32.00045675	      0.40662538	     -0.00200000	     -0.32938366	      0.00000000	     -2.75156989	      0.00000000	      0.00000000	      0.00000000	      0.00000000	      0.00000000	      0.00000000	      0.00000000	      0.00000000	      0.00000000	      0.00000000
      0.46200000	      9.31559224	    765.81686735	     31.92117959	      0.40669542	     -0.00200000	     -0.32925661	      0.00000000	     -2.79712546	      0.00000000	      0.00000000	      0.00000000	      0.00000000	      0.00000000	      0.00000000	      0.00000000	      0.00000000	      0.00000000	      0.00000000
      0.46300000	     10.03456442	    767.70719141	     31.84536360	      0.40676377	     -0.00200000	     -0.32913191	      0.00000000	     -2.84308567	      0.00000000	      0.00000000	      0.00000000	      0.00000000	      0.00000000	      0.00000000	      0.00000000	      0.00000000	      0.00000000	      0.00000000
      0.46400000	     10.75259317	    769.61815357	     31.77240416	      0.40683074	     -0.00200000	     -0.32900906	      0.00000000	     -2.88935314	      0.00000000	      0.00000000	      0.00000000	      0.00000000	      0.00000000	      0.00000000	      0.00000000	      0.00000000	      0.00000000	      0.00000000
      0.46500000	     11.46972040	    771.55489475	     31.70314617	      0.40689606	     -0.00200000	     -0.32888855	      0.00000000	     -2.93597609	      0.00000000	      0.00000000	      0.00000000	      0.00000000	      0.00000000	      0.00000000	      0.00000000	      0.00000000	      0.00000000	      0.00000000
      0.46600000	     12.18636334	    773.51249754	     31.63695931	      0.40696002	     -0.00200000	     -0.32876984	      0.00000000	     -2.98286037	      0.00000000	      0.00000000	      0.00000000	      0.00000000	      0.00000000	      0.00000000	      0.00000000	      0.00000000	      0.00000000	      0.00000000
      0.46700000	     12.90271990	    775.49591660	     31.57475777	      0.40702238	     -0.00200000	     -0.32865345	      0.00000000	     -3.03003595	     -0.00000000	      0.00000000	      0.00000000	      0.00000000	      0.00000000	      0.00000000	      0.00000000	      0.00000000	      0.00000000	      0.00000000
      0.46800000	     13.61911744	    777.49997377	     31.51585981	      0.40708345	     -0.00200000	     -0.32853889	      0.00000000	     -3.07741801	      0.00000000	      0.00000000	      0.00000000	      0.00000000	      0.00000000	      0.00000000	      0.00000000	      0.00000000	      0.00000000	      0.00000000
      0.46900000	     14.33591312	    779.52980995	     31.46122992	      0.40714295	     -0.00200000	     -0.32842657	      0.00000000	     -3.12502794	     -0.00000000	      0.00000000	      0.00000000	      0.00000000	      0.00000000	      0.00000000	      0.00000000	      0.00000000	      0.00000000	      0.00000000
      0.47000000	     15.05331416	    781.58006072	     31.41012490	      0.40720123	     -0.00200000	     -0.32831605	      0.00000000	     -3.17279544	      0.00000000	      0.00000000	      0.00000000	      0.00000000	      0.00000000	      0.00000000	      0.00000000	      0.00000000	      0.00000000	      0.00000000
